<svg width="50" height="50" viewBox="0 0 50 50" fill="none" xmlns="http://www.w3.org/2000/svg">
<path d="M25.0496 0.000488281H24.9357C11.1641 0.000488281 0 11.1679 0 24.9436V25.0574C0 38.8331 11.1641 50.0005 24.9357 50.0005H25.0496C38.8212 50.0005 49.9853 38.8331 49.9853 25.0574V24.9436C49.9853 11.1679 38.8212 0.000488281 25.0496 0.000488281Z" fill="white"/>
<path d="M37.0752 18.0896V22.8106C36.2504 22.73 35.1786 22.5426 33.993 22.1081C32.4449 21.5406 31.2926 20.7645 30.5379 20.1637V29.7054L30.5186 29.6756C30.5309 29.8648 30.5379 30.0575 30.5379 30.252C30.5379 34.9904 26.6834 38.8478 21.9446 38.8478C17.2058 38.8478 13.3513 34.9904 13.3513 30.252C13.3513 25.5135 17.2058 21.6544 21.9446 21.6544C22.4087 21.6544 22.864 21.6912 23.3088 21.763V26.4157C22.8815 26.2633 22.4227 26.1809 21.9446 26.1809C19.7013 26.1809 17.8747 28.0062 17.8747 30.252C17.8747 32.4977 19.7013 34.323 21.9446 34.323C24.1879 34.323 26.0144 32.496 26.0144 30.252C26.0144 30.1679 26.0127 30.0838 26.0074 29.9997V11.4575H30.7235C30.741 11.8569 30.7568 12.2598 30.7743 12.6592C30.8058 13.4458 31.086 14.2007 31.5746 14.8191C32.1472 15.5461 32.9931 16.3904 34.1804 17.0649C35.2924 17.6937 36.3362 17.9652 37.0752 18.0931V18.0896Z" fill="#213D34"/>
</svg>
