<svg width="50" height="50" viewBox="0 0 50 50" fill="none" xmlns="http://www.w3.org/2000/svg">
<path d="M49.9835 25.0009C49.9835 37.6274 40.6267 48.0661 28.4715 49.76C27.3349 49.9177 26.1721 50 24.9918 50C23.6293 50 22.2914 49.8914 20.9885 49.6812C9.08887 47.7648 0 37.4435 0 25.0009C0 11.1936 11.1903 0 24.9935 0C38.7967 0 49.987 11.1936 49.987 25.0009H49.9835Z" fill="white"/>
<path d="M28.4715 20.0755V25.5217H35.2067L34.1402 32.858H28.4715V49.7605C27.3349 49.9182 26.1721 50.0005 24.9918 50.0005C23.6293 50.0005 22.2914 49.8919 20.9885 49.6817V32.858H14.7769V25.5217H20.9885V18.8581C20.9885 14.7239 24.3386 11.3711 28.4732 11.3711V11.3746C28.4855 11.3746 28.496 11.3711 28.5082 11.3711H35.2084V17.7159H30.8304C29.5292 17.7159 28.4732 18.7722 28.4732 20.0738L28.4715 20.0755Z" fill="#213D34"/>
</svg>
