<svg width="50" height="50" viewBox="0 0 50 50" fill="none" xmlns="http://www.w3.org/2000/svg">
<path d="M49.9835 25.0014C49.9835 37.6279 40.6267 48.0666 28.4714 49.7605C27.3349 49.9182 26.1721 50.0005 24.9918 50.0005C23.6293 50.0005 22.2914 49.8919 20.9885 49.6817C9.08887 47.7653 0 37.444 0 25.0014C0 11.1941 11.1903 0.000488281 24.9935 0.000488281C38.7967 0.000488281 49.987 11.1941 49.987 25.0014H49.9835Z" fill="white"/>
<path d="M10.1361 11.0278L21.6627 26.4432L10.0643 38.9769H12.6754L22.8308 28.004L31.0353 38.9769H39.9192L27.7447 22.6944L38.541 11.0278H35.9299L26.5784 21.1336L19.0219 11.0278H10.1379H10.1361ZM13.9748 12.9512H18.0552L36.0771 37.0535H31.9967L13.9748 12.9512Z" fill="#213D34"/>
</svg>
